<svg width="18" height="18" viewBox="0 0 18 18" fill="none" xmlns="http://www.w3.org/2000/svg">
<path d="M2.25 2.25V12.375H5.625V15.75H15.75V5.625H12.375V2.25H2.25ZM3.375 3.375H11.25V5.94169L5.94113 11.25H3.375V3.375ZM6.1875 4.5V5.0625H4.5V6.1875H7.27763C7.2045 6.83437 7.0065 7.34288 6.67969 7.6995C6.50199 7.64194 6.33111 7.56518 6.17006 7.47056C5.77406 7.23544 5.62444 6.98681 5.62444 6.75056H4.5C4.5 7.42106 4.91288 7.97794 5.4675 8.35031C5.1488 8.4122 4.82463 8.44141 4.5 8.4375V9.5625C5.49675 9.5625 6.327 9.33469 6.96094 8.91225C7.25569 8.96287 7.55325 9 7.875 9V7.94531C8.18044 7.43344 8.34356 6.8355 8.40263 6.1875H9V5.0625H7.3125V4.5H6.1875ZM12.0589 6.75H14.625V14.625H6.75V12.0583L12.0589 6.75ZM11.25 7.78725L10.7224 9.387L9.59737 12.762L9.5625 12.8497V13.5H10.6875V13.0078L10.7044 12.9375H11.7956L11.8125 13.0078V13.5H12.9375V12.8497L12.9021 12.7614L11.7771 9.38644L11.25 7.78781V7.78725ZM11.25 11.3197L11.4075 11.8125H11.0925L11.25 11.3203V11.3197Z" fill="white"/>
</svg>
