<svg width="30" height="36" viewBox="0 0 30 36" fill="none" xmlns="http://www.w3.org/2000/svg">
<g filter="url(#filter0_d_965_2226)">
<path d="M19.6854 17.7448L15 22.4302L10.3146 17.7448C8.61783 17.8147 7.01366 18.5374 5.83703 19.7619C4.66039 20.9864 4.00224 22.6181 4 24.3163V24.792C4.00032 25.417 4.24874 26.0163 4.69069 26.4582C5.13264 26.9002 5.73196 27.1486 6.35697 27.1489H23.643C23.9529 27.1488 24.2597 27.0875 24.5459 26.9687C24.8321 26.8499 25.0921 26.6759 25.311 26.4566C25.5299 26.2372 25.7034 25.9769 25.8216 25.6905C25.9399 25.404 26.0005 25.0971 26 24.7872V24.3115C25.9975 22.6135 25.3392 20.9821 24.1626 19.7579C22.986 18.5336 21.382 17.8112 19.6854 17.7413V17.7448ZM4.66832 5.92072L4.98227 5.99445V8.86158C4.80761 8.95726 4.66121 9.09724 4.5578 9.26743C4.45438 9.43763 4.39759 9.63205 4.39313 9.83115C4.38867 10.0303 4.4367 10.227 4.53239 10.4017C4.62809 10.5763 4.76807 10.7227 4.93827 10.8261L4.17243 13.8859C4.08919 14.2248 4.27589 14.5733 4.54584 14.5733H6.59719C6.86713 14.5733 7.05384 14.2248 6.97059 13.8859L6.20476 10.8261C6.37496 10.7227 6.51494 10.5763 6.61063 10.4017C6.70633 10.227 6.75436 10.0303 6.7499 9.83115C6.74544 9.63205 6.68865 9.43763 6.58523 9.26743C6.48181 9.09724 6.33542 8.95726 6.16076 8.86158V6.28342L9.4013 7.06472C8.97698 7.91156 8.74991 8.84349 8.73712 9.7906C8.72433 10.7377 8.92615 11.6754 9.32744 12.5334C9.72872 13.3914 10.3191 14.1474 11.0542 14.7447C11.7893 15.342 12.6501 15.7652 13.5721 15.9823C14.4941 16.1995 15.4533 16.2051 16.3777 15.9988C17.3021 15.7924 18.1679 15.3794 18.9099 14.7907C19.652 14.2021 20.2512 13.453 20.6625 12.5998C21.0738 11.7466 21.2866 10.8113 21.2849 9.86407C21.2799 8.88978 21.0443 7.93052 20.5975 7.06472L25.3269 5.92547C25.5124 5.89818 25.6819 5.80507 25.8045 5.66317C25.927 5.52126 25.9945 5.34001 25.9945 5.1525C25.9945 4.965 25.927 4.78375 25.8045 4.64184C25.6819 4.49993 25.5124 4.40683 25.3269 4.37953L15.9775 2.11412C15.3367 1.96196 14.6692 1.96196 14.0284 2.11412L4.66832 4.36883C4.48657 4.40083 4.3219 4.49586 4.20325 4.63723C4.0846 4.77859 4.01957 4.95724 4.01957 5.1418C4.01957 5.32635 4.0846 5.50501 4.20325 5.64637C4.3219 5.78773 4.48657 5.88277 4.66832 5.91477V5.92072Z" fill="#BDBDBD"/>
</g>
<defs>
<filter id="filter0_d_965_2226" x="-4" y="0" width="38" height="38" filterUnits="userSpaceOnUse" color-interpolation-filters="sRGB">
<feFlood flood-opacity="0" result="BackgroundImageFix"/>
<feColorMatrix in="SourceAlpha" type="matrix" values="0 0 0 0 0 0 0 0 0 0 0 0 0 0 0 0 0 0 127 0" result="hardAlpha"/>
<feOffset dy="4"/>
<feGaussianBlur stdDeviation="2"/>
<feComposite in2="hardAlpha" operator="out"/>
<feColorMatrix type="matrix" values="0 0 0 0 0 0 0 0 0 0 0 0 0 0 0 0 0 0 0.25 0"/>
<feBlend mode="normal" in2="BackgroundImageFix" result="effect1_dropShadow_965_2226"/>
<feBlend mode="normal" in="SourceGraphic" in2="effect1_dropShadow_965_2226" result="shape"/>
</filter>
</defs>
</svg>
