<svg width="22" height="22" viewBox="0 0 22 22" fill="none" xmlns="http://www.w3.org/2000/svg">
<path fill-rule="evenodd" clip-rule="evenodd" d="M11 1.375C10.6353 1.375 10.2856 1.51987 10.0277 1.77773C9.76987 2.03559 9.625 2.38533 9.625 2.75V2.8875C8.07237 3.20496 6.67699 4.04886 5.67483 5.27651C4.67266 6.50417 4.1252 8.04024 4.125 9.625V15.125L2.46813 16.951C1.6665 17.8351 2.2935 19.25 3.48563 19.25H8.6185C8.85988 19.668 9.20703 20.0151 9.62506 20.2565C10.0431 20.4978 10.5173 20.6249 11 20.6249C11.4827 20.6249 11.9569 20.4978 12.3749 20.2565C12.793 20.0151 13.1401 19.668 13.3815 19.25H18.5144C19.7065 19.25 20.3335 17.8337 19.5319 16.951L17.875 15.125V9.625C17.8748 8.04024 17.3273 6.50417 16.3252 5.27651C15.323 4.04886 13.9276 3.20496 12.375 2.8875V2.75C12.375 2.38533 12.2301 2.03559 11.9723 1.77773C11.7144 1.51987 11.3647 1.375 11 1.375ZM6.1875 15.9225L5.65125 16.511L5.038 17.1875H16.962L16.3474 16.511L15.8125 15.9211V9.625C15.8125 8.99301 15.688 8.36722 15.4462 7.78334C15.2043 7.19946 14.8498 6.66893 14.403 6.22205C13.9561 5.77517 13.4255 5.42068 12.8417 5.17883C12.2578 4.93698 11.632 4.8125 11 4.8125C10.368 4.8125 9.74222 4.93698 9.15834 5.17883C8.57446 5.42068 8.04393 5.77517 7.59705 6.22205C7.15017 6.66893 6.79568 7.19946 6.55383 7.78334C6.31198 8.36722 6.1875 8.99301 6.1875 9.625V15.9225Z" fill="#6E1F94"/>
</svg>
