<svg width="26" height="30" viewBox="0 0 26 30" fill="none" xmlns="http://www.w3.org/2000/svg">
<g filter="url(#filter0_d_115_2148)">
<path d="M13 14C12.7167 14 12.4793 13.904 12.288 13.712C12.096 13.5207 12 13.2833 12 13C12 12.7167 12.096 12.479 12.288 12.287C12.4793 12.0957 12.7167 12 13 12C13.2833 12 13.521 12.0957 13.713 12.287C13.9043 12.479 14 12.7167 14 13C14 13.2833 13.9043 13.5207 13.713 13.712C13.521 13.904 13.2833 14 13 14ZM9 14C8.71667 14 8.479 13.904 8.287 13.712C8.09567 13.5207 8 13.2833 8 13C8 12.7167 8.09567 12.479 8.287 12.287C8.479 12.0957 8.71667 12 9 12C9.28333 12 9.521 12.0957 9.713 12.287C9.90433 12.479 10 12.7167 10 13C10 13.2833 9.90433 13.5207 9.713 13.712C9.521 13.904 9.28333 14 9 14ZM17 14C16.7167 14 16.4793 13.904 16.288 13.712C16.096 13.5207 16 13.2833 16 13C16 12.7167 16.096 12.479 16.288 12.287C16.4793 12.0957 16.7167 12 17 12C17.2833 12 17.5207 12.0957 17.712 12.287C17.904 12.479 18 12.7167 18 13C18 13.2833 17.904 13.5207 17.712 13.712C17.5207 13.904 17.2833 14 17 14ZM13 18C12.7167 18 12.4793 17.904 12.288 17.712C12.096 17.5207 12 17.2833 12 17C12 16.7167 12.096 16.4793 12.288 16.288C12.4793 16.096 12.7167 16 13 16C13.2833 16 13.521 16.096 13.713 16.288C13.9043 16.4793 14 16.7167 14 17C14 17.2833 13.9043 17.5207 13.713 17.712C13.521 17.904 13.2833 18 13 18ZM9 18C8.71667 18 8.479 17.904 8.287 17.712C8.09567 17.5207 8 17.2833 8 17C8 16.7167 8.09567 16.4793 8.287 16.288C8.479 16.096 8.71667 16 9 16C9.28333 16 9.521 16.096 9.713 16.288C9.90433 16.4793 10 16.7167 10 17C10 17.2833 9.90433 17.5207 9.713 17.712C9.521 17.904 9.28333 18 9 18ZM17 18C16.7167 18 16.4793 17.904 16.288 17.712C16.096 17.5207 16 17.2833 16 17C16 16.7167 16.096 16.4793 16.288 16.288C16.4793 16.096 16.7167 16 17 16C17.2833 16 17.5207 16.096 17.712 16.288C17.904 16.4793 18 16.7167 18 17C18 17.2833 17.904 17.5207 17.712 17.712C17.5207 17.904 17.2833 18 17 18ZM6 22C5.45 22 4.979 21.8043 4.587 21.413C4.19567 21.021 4 20.55 4 20V6C4 5.45 4.19567 4.97933 4.587 4.588C4.979 4.196 5.45 4 6 4H7V3C7 2.71667 7.09567 2.479 7.287 2.287C7.479 2.09567 7.71667 2 8 2C8.28333 2 8.521 2.09567 8.713 2.287C8.90433 2.479 9 2.71667 9 3V4H17V3C17 2.71667 17.096 2.479 17.288 2.287C17.4793 2.09567 17.7167 2 18 2C18.2833 2 18.5207 2.09567 18.712 2.287C18.904 2.479 19 2.71667 19 3V4H20C20.55 4 21.021 4.196 21.413 4.588C21.8043 4.97933 22 5.45 22 6V20C22 20.55 21.8043 21.021 21.413 21.413C21.021 21.8043 20.55 22 20 22H6ZM6 20H20V10H6V20ZM6 8H20V6H6V8ZM6 8V6V8Z" fill="#8A8A8A"/>
</g>
<defs>
<filter id="filter0_d_115_2148" x="-3" y="0" width="32" height="32" filterUnits="userSpaceOnUse" color-interpolation-filters="sRGB">
<feFlood flood-opacity="0" result="BackgroundImageFix"/>
<feColorMatrix in="SourceAlpha" type="matrix" values="0 0 0 0 0 0 0 0 0 0 0 0 0 0 0 0 0 0 127 0" result="hardAlpha"/>
<feOffset dy="4"/>
<feGaussianBlur stdDeviation="2"/>
<feComposite in2="hardAlpha" operator="out"/>
<feColorMatrix type="matrix" values="0 0 0 0 0 0 0 0 0 0 0 0 0 0 0 0 0 0 0.25 0"/>
<feBlend mode="normal" in2="BackgroundImageFix" result="effect1_dropShadow_115_2148"/>
<feBlend mode="normal" in="SourceGraphic" in2="effect1_dropShadow_115_2148" result="shape"/>
</filter>
</defs>
</svg>
