<svg width="24" height="24" viewBox="0 0 24 24" fill="none" xmlns="http://www.w3.org/2000/svg">
<path d="M7.25 14C7.05109 14 6.86032 14.079 6.71967 14.2197C6.57902 14.3603 6.5 14.5511 6.5 14.75C6.5 14.9489 6.57902 15.1397 6.71967 15.2803C6.86032 15.421 7.05109 15.5 7.25 15.5H10.75C10.9489 15.5 11.1397 15.421 11.2803 15.2803C11.421 15.1397 11.5 14.9489 11.5 14.75C11.5 14.5511 11.421 14.3603 11.2803 14.2197C11.1397 14.079 10.9489 14 10.75 14H7.25ZM6.5 9.25C6.5 9.05109 6.57902 8.86032 6.71967 8.71967C6.86032 8.57902 7.05109 8.5 7.25 8.5H10.75C10.9489 8.5 11.1397 8.57902 11.2803 8.71967C11.421 8.86032 11.5 9.05109 11.5 9.25C11.5 9.44891 11.421 9.63968 11.2803 9.78033C11.1397 9.92098 10.9489 10 10.75 10H7.25C7.05109 10 6.86032 9.92098 6.71967 9.78033C6.57902 9.63968 6.5 9.44891 6.5 9.25ZM17.78 8.78C17.9125 8.63783 17.9846 8.44978 17.9812 8.25548C17.9777 8.06118 17.899 7.87579 17.7616 7.73838C17.6242 7.60097 17.4388 7.52225 17.2445 7.51883C17.0502 7.5154 16.8622 7.58752 16.72 7.72L15.25 9.19L14.78 8.72C14.7113 8.64631 14.6285 8.58721 14.5365 8.54622C14.4445 8.50523 14.3452 8.48318 14.2445 8.48141C14.1438 8.47963 14.0438 8.49816 13.9504 8.53588C13.857 8.5736 13.7722 8.62974 13.701 8.70096C13.6297 8.77218 13.5736 8.85701 13.5359 8.9504C13.4982 9.04379 13.4796 9.14382 13.4814 9.24452C13.4832 9.34522 13.5052 9.44454 13.5462 9.53654C13.5872 9.62854 13.6463 9.71134 13.72 9.78L14.72 10.78C14.8606 10.9205 15.0512 10.9993 15.25 10.9993C15.4488 10.9993 15.6394 10.9205 15.78 10.78L17.78 8.78ZM17.78 13.22C17.9205 13.3606 17.9993 13.5512 17.9993 13.75C17.9993 13.9488 17.9205 14.1394 17.78 14.28L15.78 16.28C15.6394 16.4205 15.4488 16.4993 15.25 16.4993C15.0512 16.4993 14.8606 16.4205 14.72 16.28L13.72 15.28C13.6463 15.2113 13.5872 15.1285 13.5462 15.0365C13.5052 14.9445 13.4832 14.8452 13.4814 14.7445C13.4796 14.6438 13.4982 14.5438 13.5359 14.4504C13.5736 14.357 13.6297 14.2722 13.701 14.201C13.7722 14.1297 13.857 14.0736 13.9504 14.0359C14.0438 13.9982 14.1438 13.9796 14.2445 13.9814C14.3452 13.9832 14.4445 14.0052 14.5365 14.0462C14.6285 14.0872 14.7113 14.1463 14.78 14.22L15.25 14.69L16.72 13.22C16.8606 13.0795 17.0512 13.0007 17.25 13.0007C17.4488 13.0007 17.6394 13.0795 17.78 13.22ZM6.25 3C5.38805 3 4.5614 3.34241 3.9519 3.9519C3.34241 4.5614 3 5.38805 3 6.25V17.75C3 18.612 3.34241 19.4386 3.9519 20.0481C4.5614 20.6576 5.38805 21 6.25 21H17.75C18.612 21 19.4386 20.6576 20.0481 20.0481C20.6576 19.4386 21 18.612 21 17.75V6.25C21 5.38805 20.6576 4.5614 20.0481 3.9519C19.4386 3.34241 18.612 3 17.75 3H6.25ZM4.5 6.25C4.5 5.284 5.284 4.5 6.25 4.5H17.75C18.716 4.5 19.5 5.284 19.5 6.25V17.75C19.5 18.2141 19.3156 18.6592 18.9874 18.9874C18.6592 19.3156 18.2141 19.5 17.75 19.5H6.25C5.78587 19.5 5.34075 19.3156 5.01256 18.9874C4.68437 18.6592 4.5 18.2141 4.5 17.75V6.25Z" fill="#8A8A8A"/>
</svg>
