<svg width="22" height="24" viewBox="0 0 22 24" fill="none" xmlns="http://www.w3.org/2000/svg">
<path d="M5.4036 13.2024C5.24447 13.2024 5.09186 13.2656 4.97934 13.3781C4.86681 13.4907 4.8036 13.6433 4.8036 13.8024V17.4024C4.8036 17.5615 4.86681 17.7141 4.97934 17.8267C5.09186 17.9392 5.24447 18.0024 5.4036 18.0024C5.56273 18.0024 5.71534 17.9392 5.82786 17.8267C5.94039 17.7141 6.0036 17.5615 6.0036 17.4024V16.8024H6.6C7.07739 16.8024 7.53523 16.6128 7.87279 16.2752C8.21036 15.9376 8.4 15.4798 8.4 15.0024C8.4 14.525 8.21036 14.0672 7.87279 13.7296C7.53523 13.392 7.07739 13.2024 6.6 13.2024H5.4036ZM6.6 15.6024H6.0036V14.4024H6.6C6.75913 14.4024 6.91174 14.4656 7.02426 14.5781C7.13679 14.6907 7.2 14.8433 7.2 15.0024C7.2 15.1615 7.13679 15.3141 7.02426 15.4267C6.91174 15.5392 6.75913 15.6024 6.6 15.6024ZM14.3976 13.8024C14.3976 13.6433 14.4608 13.4907 14.5733 13.3781C14.6859 13.2656 14.8385 13.2024 14.9976 13.2024H16.8036C16.9627 13.2024 17.1153 13.2656 17.2279 13.3781C17.3404 13.4907 17.4036 13.6433 17.4036 13.8024C17.4036 13.9615 17.3404 14.1141 17.2279 14.2267C17.1153 14.3392 16.9627 14.4024 16.8036 14.4024H15.5964L15.5952 15.6048H16.8036C16.9627 15.6048 17.1153 15.668 17.2279 15.7805C17.3404 15.8931 17.4036 16.0457 17.4036 16.2048C17.4036 16.3639 17.3404 16.5165 17.2279 16.6291C17.1153 16.7416 16.9627 16.8048 16.8036 16.8048H15.5952L15.5976 17.4012C15.5978 17.48 15.5824 17.558 15.5524 17.6309C15.5224 17.7038 15.4783 17.77 15.4227 17.8258C15.3104 17.9386 15.1579 18.0021 14.9988 18.0024C14.8397 18.0027 14.6869 17.9398 14.5742 17.8275C14.4614 17.7152 14.3979 17.5627 14.3976 17.4036L14.394 16.206V16.2036L14.3976 13.8012V13.8024ZM10.2 13.2024C10.0409 13.2024 9.88826 13.2656 9.77574 13.3781C9.66321 13.4907 9.6 13.6433 9.6 13.8024V17.4024C9.6 17.5615 9.66321 17.7141 9.77574 17.8267C9.88826 17.9392 10.0409 18.0024 10.2 18.0024H10.7976C11.4341 18.0024 12.0446 17.7495 12.4947 17.2995C12.9447 16.8494 13.1976 16.2389 13.1976 15.6024C13.1976 14.9659 12.9447 14.3554 12.4947 13.9053C12.0446 13.4553 11.4341 13.2024 10.7976 13.2024H10.2ZM10.8 16.8024V14.4024C11.1183 14.4024 11.4235 14.5288 11.6485 14.7539C11.8736 14.9789 12 15.2841 12 15.6024C12 15.9207 11.8736 16.2259 11.6485 16.4509C11.4235 16.676 11.1183 16.8024 10.8 16.8024ZM20.4 21.6V20.2032C21.1092 19.866 21.6 19.1424 21.6 18.3048V12.9C21.6 12.0624 21.1092 11.34 20.4 11.0016V9.3936C20.3999 8.75713 20.1469 8.14678 19.6968 7.6968L12.702 0.7032C12.6835 0.685953 12.6638 0.66992 12.6432 0.6552C12.6284 0.64374 12.6139 0.631732 12.6 0.6192C12.5174 0.541285 12.4296 0.469116 12.3372 0.4032C12.3065 0.383378 12.2744 0.365735 12.2412 0.3504L12.1836 0.3216L12.1236 0.2868C12.0588 0.2496 11.9928 0.2112 11.9244 0.1824C11.6854 0.0869559 11.4325 0.0310253 11.1756 0.0167999C11.1519 0.0152547 11.1282 0.0124508 11.1048 0.00839996C11.0722 0.00336973 11.0394 0.000563274 11.0064 0H3.6C2.96348 0 2.35303 0.252856 1.90294 0.702944C1.45286 1.15303 1.2 1.76348 1.2 2.4V11.0016C0.4908 11.3388 0 12.0624 0 12.9V18.3048C0 19.1424 0.4908 19.8648 1.2 20.2032V21.6C1.2 22.2365 1.45286 22.847 1.90294 23.2971C2.35303 23.7471 2.96348 24 3.6 24H18C18.6365 24 19.247 23.7471 19.6971 23.2971C20.1471 22.847 20.4 22.2365 20.4 21.6ZM18 22.2H3.6C3.44087 22.2 3.28826 22.1368 3.17574 22.0243C3.06321 21.9117 3 21.7591 3 21.6V20.4048H18.6V21.6C18.6 21.7591 18.5368 21.9117 18.4243 22.0243C18.3117 22.1368 18.1591 22.2 18 22.2ZM18.6 9.6V10.8H3V2.4C3 2.24087 3.06321 2.08826 3.17574 1.97574C3.28826 1.86321 3.44087 1.8 3.6 1.8H10.8V7.2C10.8 7.83652 11.0529 8.44697 11.5029 8.89706C11.953 9.34714 12.5635 9.6 13.2 9.6H18.6ZM17.2536 7.8H13.2C13.0409 7.8 12.8883 7.73679 12.7757 7.62426C12.6632 7.51174 12.6 7.35913 12.6 7.2V3.1452L17.2536 7.8ZM2.1 12.6H19.5C19.5796 12.6 19.6559 12.6316 19.7121 12.6879C19.7684 12.7441 19.8 12.8204 19.8 12.9V18.3048C19.8 18.3844 19.7684 18.4607 19.7121 18.5169C19.6559 18.5732 19.5796 18.6048 19.5 18.6048H2.1C2.02044 18.6048 1.94413 18.5732 1.88787 18.5169C1.83161 18.4607 1.8 18.3844 1.8 18.3048V12.9C1.8 12.8204 1.83161 12.7441 1.88787 12.6879C1.94413 12.6316 2.02044 12.6 2.1 12.6Z" fill="#E92626"/>
</svg>
