<svg width="24" height="24" viewBox="0 0 24 24" fill="none" xmlns="http://www.w3.org/2000/svg">
<path d="M15 10.5C15 10.945 14.868 11.38 14.6208 11.75C14.3736 12.12 14.0222 12.4084 13.611 12.5787C13.1999 12.749 12.7475 12.7936 12.311 12.7068C11.8746 12.62 11.4737 12.4057 11.159 12.091C10.8443 11.7763 10.63 11.3754 10.5432 10.939C10.4564 10.5025 10.501 10.0501 10.6713 9.63896C10.8416 9.22783 11.13 8.87643 11.5 8.62919C11.87 8.38196 12.305 8.25 12.75 8.25C13.346 8.25247 13.9168 8.49031 14.3383 8.91174C14.7597 9.33316 14.9975 9.90402 15 10.5ZM21 3.75V20.25C21 20.6478 20.842 21.0294 20.5607 21.3107C20.2794 21.592 19.8978 21.75 19.5 21.75H6C5.60218 21.75 5.22064 21.592 4.93934 21.3107C4.65804 21.0294 4.5 20.6478 4.5 20.25V18.375H3C2.80109 18.375 2.61032 18.296 2.46967 18.1553C2.32902 18.0147 2.25 17.8239 2.25 17.625C2.25 17.4261 2.32902 17.2353 2.46967 17.0947C2.61032 16.954 2.80109 16.875 3 16.875H4.5V14.625H3C2.80109 14.625 2.61032 14.546 2.46967 14.4053C2.32902 14.2647 2.25 14.0739 2.25 13.875C2.25 13.6761 2.32902 13.4853 2.46967 13.3447C2.61032 13.204 2.80109 13.125 3 13.125H4.5V10.875H3C2.80109 10.875 2.61032 10.796 2.46967 10.6553C2.32902 10.5147 2.25 10.3239 2.25 10.125C2.25 9.92609 2.32902 9.73532 2.46967 9.59467C2.61032 9.45402 2.80109 9.375 3 9.375H4.5V7.125H3C2.80109 7.125 2.61032 7.04598 2.46967 6.90533C2.32902 6.76468 2.25 6.57391 2.25 6.375C2.25 6.17609 2.32902 5.98532 2.46967 5.84467C2.61032 5.70402 2.80109 5.625 3 5.625H4.5V3.75C4.5 3.35218 4.65804 2.97064 4.93934 2.68934C5.22064 2.40804 5.60218 2.25 6 2.25H19.5C19.8978 2.25 20.2794 2.40804 20.5607 2.68934C20.842 2.97064 21 3.35218 21 3.75ZM17.85 15.3C17.1863 14.409 16.3006 13.7076 15.2812 13.2656C15.8389 12.7554 16.2294 12.0886 16.4015 11.3525C16.5736 10.6165 16.5192 9.84566 16.2456 9.14106C15.9719 8.43647 15.4917 7.83103 14.8679 7.40413C14.2441 6.97723 13.5059 6.74881 12.75 6.74881C11.9941 6.74881 11.2559 6.97723 10.6321 7.40413C10.0083 7.83103 9.5281 8.43647 9.25443 9.14106C8.98075 9.84566 8.92639 10.6165 9.09847 11.3525C9.27056 12.0886 9.66105 12.7554 10.2188 13.2656C9.19942 13.7076 8.31374 14.409 7.65 15.3C7.53065 15.4591 7.47941 15.6592 7.50754 15.8561C7.53567 16.053 7.64087 16.2307 7.8 16.35C7.92882 16.4493 8.08739 16.5021 8.25 16.5C8.36643 16.5 8.48127 16.4729 8.58541 16.4208C8.68955 16.3687 8.78014 16.2931 8.85 16.2C9.30409 15.5945 9.89291 15.1031 10.5698 14.7647C11.2468 14.4262 11.9932 14.25 12.75 14.25C13.5068 14.25 14.2532 14.4262 14.9302 14.7647C15.6071 15.1031 16.1959 15.5945 16.65 16.2C16.7708 16.3571 16.9483 16.4607 17.1445 16.4887C17.3407 16.5167 17.54 16.4669 17.7 16.35C17.7788 16.2909 17.8452 16.2169 17.8954 16.1321C17.9455 16.0474 17.9785 15.9536 17.9925 15.8561C18.0064 15.7586 18.001 15.6593 17.9765 15.5639C17.9521 15.4685 17.9091 15.3788 17.85 15.3Z" fill="#8A8A8A"/>
</svg>
