<svg width="24" height="24" viewBox="0 0 24 24" fill="none" xmlns="http://www.w3.org/2000/svg">
<path d="M12.1125 14.7093C13.0542 13.9171 13.7296 12.8544 14.047 11.6654C14.3644 10.4763 14.3085 9.21845 13.8869 8.06226C13.4652 6.90607 12.6982 5.9075 11.6899 5.20193C10.6816 4.49636 9.48067 4.11792 8.24999 4.11792C7.01932 4.11792 5.81841 4.49636 4.81008 5.20193C3.80175 5.9075 3.03477 6.90607 2.61313 8.06226C2.19148 9.21845 2.13557 10.4763 2.45298 11.6654C2.77038 12.8544 3.44574 13.9171 4.38749 14.7093C2.86016 15.4005 1.54585 16.4882 0.581242 17.8593C0.41004 18.1031 0.342517 18.4049 0.393485 18.6984C0.444452 18.9919 0.609748 19.2532 0.853117 19.425C1.04179 19.5598 1.26808 19.632 1.49999 19.6312C1.68038 19.6317 1.8582 19.5885 2.01821 19.5052C2.17823 19.422 2.31566 19.3011 2.41874 19.1531C3.07604 18.2169 3.94908 17.4527 4.96406 16.9252C5.97903 16.3977 7.1061 16.1222 8.24999 16.1222C9.39388 16.1222 10.5209 16.3977 11.5359 16.9252C12.5509 17.4527 13.4239 18.2169 14.0812 19.1531C14.1627 19.2819 14.2695 19.3928 14.3952 19.479C14.5208 19.5653 14.6627 19.6251 14.8122 19.6549C14.9616 19.6847 15.1156 19.6838 15.2647 19.6522C15.4138 19.6207 15.555 19.5592 15.6796 19.4714C15.8042 19.3837 15.9097 19.2715 15.9897 19.1418C16.0696 19.012 16.1224 18.8674 16.1447 18.7167C16.1671 18.5659 16.1586 18.4122 16.1198 18.2648C16.0809 18.1174 16.0125 17.9795 15.9187 17.8593C14.9541 16.4882 13.6398 15.4005 12.1125 14.7093ZM4.49999 10.125C4.49999 9.38328 4.71993 8.65826 5.13198 8.04157C5.54404 7.42489 6.12971 6.94424 6.81493 6.66041C7.50015 6.37658 8.25415 6.30232 8.98158 6.44702C9.70901 6.59171 10.3772 6.94886 10.9016 7.47331C11.4261 7.99776 11.7832 8.66594 11.9279 9.39337C12.0726 10.1208 11.9984 10.8748 11.7145 11.56C11.4307 12.2452 10.9501 12.8309 10.3334 13.243C9.71669 13.655 8.99167 13.875 8.24999 13.875C7.25543 13.875 6.3016 13.4799 5.59834 12.7766C4.89508 12.0733 4.49999 11.1195 4.49999 10.125ZM23.2875 19.425C23.0988 19.5598 22.8725 19.632 22.6406 19.6312C22.4605 19.6302 22.2833 19.5863 22.1235 19.5031C21.9637 19.42 21.8261 19.3 21.7219 19.1531C21.0632 18.2185 20.1898 17.4557 19.175 16.9288C18.1603 16.4019 17.034 16.1262 15.8906 16.125C15.5922 16.125 15.3061 16.0064 15.0951 15.7955C14.8841 15.5845 14.7656 15.2983 14.7656 15C14.7656 14.7016 14.8841 14.4154 15.0951 14.2045C15.3061 13.9935 15.5922 13.875 15.8906 13.875C16.8852 13.875 17.839 13.4799 18.5423 12.7766C19.2455 12.0733 19.6406 11.1195 19.6406 10.125C19.6406 9.1304 19.2455 8.17657 18.5423 7.47331C17.839 6.77005 16.8852 6.37496 15.8906 6.37496C15.5482 6.37432 15.2074 6.42165 14.8781 6.51559C14.7351 6.55824 14.5851 6.57202 14.4367 6.55612C14.2884 6.54023 14.1446 6.49498 14.0139 6.42301C13.8832 6.35104 13.7681 6.25379 13.6754 6.13692C13.5826 6.02004 13.514 5.88588 13.4736 5.74225C13.4332 5.59861 13.4217 5.44837 13.4399 5.30027C13.4582 5.15218 13.5056 5.00918 13.5796 4.87961C13.6536 4.75004 13.7527 4.63648 13.871 4.54555C13.9893 4.45462 14.1245 4.38813 14.2687 4.34996C14.7962 4.19978 15.3421 4.12405 15.8906 4.12496C17.1221 4.12138 18.3248 4.49743 19.3349 5.2019C20.345 5.90637 21.1135 6.90503 21.5356 8.0619C21.9578 9.21878 22.0132 10.4777 21.6942 11.6671C21.3753 12.8566 20.6975 13.9189 19.7531 14.7093C21.2805 15.4005 22.5948 16.4882 23.5594 17.8593C23.6454 17.9796 23.7066 18.1158 23.7395 18.2599C23.7724 18.4041 23.7763 18.5534 23.751 18.699C23.7257 18.8447 23.6717 18.9839 23.5921 19.1085C23.5125 19.2332 23.409 19.3407 23.2875 19.425Z" fill="#8A8A8A"/>
</svg>
