<svg width="24" height="24" viewBox="0 0 24 24" fill="none" xmlns="http://www.w3.org/2000/svg">
<g clip-path="url(#clip0_194_456)">
<path d="M4.80001 5.80002C4.80001 5.1635 5.05287 4.55306 5.50296 4.10297C5.95304 3.65288 6.56349 3.40002 7.20001 3.40002H15.6C16.2365 3.40002 16.847 3.65288 17.2971 4.10297C17.7472 4.55306 18 5.1635 18 5.80002V14.2H21.6V16.6C21.6 17.5548 21.2207 18.4705 20.5456 19.1456C19.8705 19.8207 18.9548 20.2 18 20.2H13.2V17.2C13.2 16.4044 12.8839 15.6413 12.3213 15.0787C11.7587 14.5161 10.9957 14.2 10.2 14.2H4.80001V5.80002ZM18 19C18.6365 19 19.247 18.7472 19.6971 18.2971C20.1472 17.847 20.4 17.2365 20.4 16.6V15.4H18V19ZM9.00001 7.00002C8.84088 7.00002 8.68827 7.06324 8.57575 7.17576C8.46323 7.28828 8.40001 7.44089 8.40001 7.60002C8.40001 7.75915 8.46323 7.91177 8.57575 8.02429C8.68827 8.13681 8.84088 8.20002 9.00001 8.20002H13.8C13.9591 8.20002 14.1118 8.13681 14.2243 8.02429C14.3368 7.91177 14.4 7.75915 14.4 7.60002C14.4 7.44089 14.3368 7.28828 14.2243 7.17576C14.1118 7.06324 13.9591 7.00002 13.8 7.00002H9.00001ZM9.00001 9.40002C8.84088 9.40002 8.68827 9.46324 8.57575 9.57576C8.46323 9.68828 8.40001 9.84089 8.40001 10C8.40001 10.1592 8.46323 10.3118 8.57575 10.4243C8.68827 10.5368 8.84088 10.6 9.00001 10.6H13.8C13.9591 10.6 14.1118 10.5368 14.2243 10.4243C14.3368 10.3118 14.4 10.1592 14.4 10C14.4 9.84089 14.3368 9.68828 14.2243 9.57576C14.1118 9.46324 13.9591 9.40002 13.8 9.40002H9.00001ZM10.2 15.4C10.6774 15.4 11.1352 15.5897 11.4728 15.9272C11.8104 16.2648 12 16.7226 12 17.2V20.8C12 21.2774 11.8104 21.7353 11.4728 22.0728C11.1352 22.4104 10.6774 22.6 10.2 22.6H3.00001C2.52262 22.6 2.06479 22.4104 1.72722 22.0728C1.38965 21.7353 1.20001 21.2774 1.20001 20.8V17.2C1.20001 16.7226 1.38965 16.2648 1.72722 15.9272C2.06479 15.5897 2.52262 15.4 3.00001 15.4H10.2ZM10.8 20.8V19.6C10.3226 19.6 9.86479 19.7897 9.52722 20.1272C9.18965 20.4648 9.00001 20.9226 9.00001 21.4H10.2C10.2 21.2409 10.2632 21.0883 10.3757 20.9758C10.4883 20.8632 10.6409 20.8 10.8 20.8ZM10.8 17.2C10.6409 17.2 10.4883 17.1368 10.3757 17.0243C10.2632 16.9118 10.2 16.7592 10.2 16.6H9.00001C9.00001 17.0774 9.18965 17.5353 9.52722 17.8728C9.86479 18.2104 10.3226 18.4 10.8 18.4V17.2ZM3.00001 16.6C3.00001 16.7592 2.9368 16.9118 2.82428 17.0243C2.71175 17.1368 2.55914 17.2 2.40001 17.2V18.4C2.8774 18.4 3.33524 18.2104 3.6728 17.8728C4.01037 17.5353 4.20001 17.0774 4.20001 16.6H3.00001ZM2.40001 20.8C2.55914 20.8 2.71175 20.8632 2.82428 20.9758C2.9368 21.0883 3.00001 21.2409 3.00001 21.4H4.20001C4.20001 20.9226 4.01037 20.4648 3.6728 20.1272C3.33524 19.7897 2.8774 19.6 2.40001 19.6V20.8ZM6.60001 17.2C6.12262 17.2 5.66478 17.3897 5.32722 17.7272C4.98965 18.0648 4.80001 18.5226 4.80001 19C4.80001 19.4774 4.98965 19.9353 5.32722 20.2728C5.66478 20.6104 6.12262 20.8 6.60001 20.8C7.0774 20.8 7.53524 20.6104 7.8728 20.2728C8.21037 19.9353 8.40001 19.4774 8.40001 19C8.40001 18.5226 8.21037 18.0648 7.8728 17.7272C7.53524 17.3897 7.0774 17.2 6.60001 17.2Z" fill="#8A8A8A"/>
</g>
<defs>
<clipPath id="clip0_194_456">
<rect width="24" height="24" fill="white"/>
</clipPath>
</defs>
</svg>
