<svg width="22" height="26" viewBox="0 0 22 26" fill="none" xmlns="http://www.w3.org/2000/svg">
<path d="M20.375 0.34375H4.4375C3.31862 0.34375 2.24556 0.788224 1.45439 1.57939C0.663224 2.37056 0.21875 3.44362 0.21875 4.5625V24.25C0.21875 24.623 0.366908 24.9806 0.630631 25.2444C0.894354 25.5081 1.25204 25.6562 1.625 25.6562H18.5C18.873 25.6562 19.2306 25.5081 19.4944 25.2444C19.7581 24.9806 19.9062 24.623 19.9062 24.25C19.9062 23.877 19.7581 23.5194 19.4944 23.2556C19.2306 22.9919 18.873 22.8438 18.5 22.8438H3.03125V22.375C3.03125 22.002 3.17941 21.6444 3.44313 21.3806C3.70685 21.1169 4.06454 20.9688 4.4375 20.9688H20.375C20.748 20.9688 21.1056 20.8206 21.3694 20.5569C21.6331 20.2931 21.7812 19.9355 21.7812 19.5625V1.75C21.7812 1.37704 21.6331 1.01935 21.3694 0.755631C21.1056 0.491908 20.748 0.34375 20.375 0.34375ZM18.9688 18.1562H4.4375C3.95784 18.154 3.48163 18.2373 3.03125 18.4023V4.5625C3.03125 4.18954 3.17941 3.83185 3.44313 3.56813C3.70685 3.30441 4.06454 3.15625 4.4375 3.15625H18.9688V18.1562Z" fill="url(#paint0_linear_6_1163)"/>
<defs>
<linearGradient id="paint0_linear_6_1163" x1="11" y1="0.34375" x2="11" y2="25.6562" gradientUnits="userSpaceOnUse">
<stop stop-color="#2AFA8A"/>
<stop offset="1" stop-color="#17CBCB"/>
</linearGradient>
</defs>
</svg>
